<svg xmlns="http://www.w3.org/2000/svg" xmlns:xlink="http://www.w3.org/1999/xlink" viewBox="0,0,256,256" width="50px" height="50px" fill-rule="nonzero"><g fill="#888888" fill-rule="nonzero" stroke="none" stroke-width="1" stroke-linecap="butt" stroke-linejoin="miter" stroke-miterlimit="10" stroke-dasharray="" stroke-dashoffset="0" font-family="none" font-weight="none" font-size="none" text-anchor="none" style="mix-blend-mode: normal"><g transform="scale(5.12,5.12)"><path d="M25,2c-4.808,0 -9.26994,1.477 -12.96094,4h-6.03906v6.03906c-2.523,3.691 -4,8.15294 -4,12.96094c0,4.808 1.477,9.26994 4,12.96094v6.03906h6.03906c3.691,2.523 8.15294,4 12.96094,4c4.808,0 9.26994,-1.477 12.96094,-4h6.03906v-6.03906c2.523,-3.691 4,-8.15294 4,-12.96094c0,-4.808 -1.477,-9.26994 -4,-12.96094v-6.03906h-6.03906c-3.691,-2.523 -8.15294,-4 -12.96094,-4zM25,4c4.246,0 8.33703,1.26239 11.83203,3.65039l0.51172,0.34961h0.61719h4.03906v4.03906v0.61719l0.34961,0.51172c2.388,3.496 3.65039,7.58603 3.65039,11.83203c0,4.246 -1.26239,8.33703 -3.65039,11.83203l-0.34961,0.51172v0.61719v4.03906h-4.03906h-0.61719l-0.51172,0.34961c-3.496,2.388 -7.58603,3.65039 -11.83203,3.65039c-4.246,0 -8.33703,-1.26239 -11.83203,-3.65039l-0.51172,-0.34961h-0.61719h-4.03906v-4.03906v-0.61719l-0.34961,-0.51172c-2.388,-3.496 -3.65039,-7.58603 -3.65039,-11.83203c0,-4.246 1.26239,-8.33703 3.65039,-11.83203l0.34961,-0.51172v-0.61719v-4.03906h4.03906h0.61719l0.51172,-0.34961c3.496,-2.388 7.58603,-3.65039 11.83203,-3.65039zM8.88867,13.95898l1.33594,1.63281c0.73829,0.90226 1.26254,1.91585 1.55664,2.98633l0.00195,0.00195l3.14453,14.16211l0.00391,0.01953c0.12823,0.4839 0.01442,2.37908 -0.19531,2.9082l-0.54297,1.36914h10.21484l-0.30469,-1.23828c0,0 -0.10403,-0.33258 0.02344,-1.41016v-0.00195c0.03145,-0.26824 0.46114,-1.78708 0.87305,-3.09766c0.41169,1.3106 0.84187,2.83196 0.87305,3.09961c0.12747,1.07758 0.02148,1.41016 0.02148,1.41016l-0.30469,1.23828h10.21484l-0.54297,-1.36719c-0.20949,-0.52852 -0.32345,-2.42455 -0.19531,-2.91016l0.00586,-0.01953l0.00391,-0.01758l3.13867,-14.14453l0.00195,-0.00391c0.29419,-1.06987 0.81873,-2.08258 1.55664,-2.98437l1.33789,-1.63281h-11.2832l0.54297,1.36914c0.15296,0.38589 0.13142,2.24775 -0.03711,2.89844l-1.68164,5.13281l-3.65234,-9.39258l-3.6543,9.39063l-1.67969,-5.12109v-0.00391c-0.16947,-0.64707 -0.19038,-2.51763 -0.03711,-2.9043l0.54297,-1.36914zM12.62305,15.95898h4.93555c-0.09278,1.00955 -0.02896,2.02054 0.17383,2.78906l0.00781,0.02734l3.44531,10.51367l3.81445,-9.80469l3.8125,9.80469l3.44727,-10.51367l0.00781,-0.02734c0.20279,-0.76852 0.26661,-1.77951 0.17383,-2.78906h4.93555c-0.38364,0.69228 -0.88201,1.33432 -1.08984,2.0918l-0.00781,0.02344l-3.14648,14.17773c-0.22572,0.85542 -0.18164,1.83831 -0.02539,2.78711h-5.25781c0.01369,-0.34938 0.0736,-0.33919 0.00977,-0.88086c-0.10627,-0.9124 -0.57425,-2.32421 -1.02734,-3.73242c-0.45309,-1.40821 -0.88672,-2.66211 -0.88672,-2.66211l-0.94531,-2.72656l-0.94531,2.72656c0,0 -0.43352,1.25408 -0.88672,2.66211c-0.4532,1.40802 -0.92041,2.81967 -1.02734,3.73047c-0.06432,0.54375 -0.00403,0.53253 0.00977,0.88281h-5.25977c0.15662,-0.94876 0.20161,-1.93246 -0.02539,-2.78906l-3.14648,-14.17578l-0.00586,-0.02344c-0.2078,-0.75748 -0.7062,-1.39952 -1.08984,-2.0918z"></path></g></g></svg>