<svg xmlns="http://www.w3.org/2000/svg" xmlns:xlink="http://www.w3.org/1999/xlink" viewBox="0,0,256,256" width="50px" height="50px" fill-rule="nonzero"><g fill="#888888" fill-rule="nonzero" stroke="none" stroke-width="1" stroke-linecap="butt" stroke-linejoin="miter" stroke-miterlimit="10" stroke-dasharray="" stroke-dashoffset="0" font-family="none" font-weight="none" font-size="none" text-anchor="none" style="mix-blend-mode: normal"><g transform="scale(5.12,5.12)"><path d="M25,2c-4.207,0 -8.14854,1.1306 -11.54102,3.10352c-0.48464,0.28185 -0.95855,0.58111 -1.41992,0.89648h-6.03906v6.03906c-2.523,3.691 -4,8.15294 -4,12.96094c0,4.808 1.477,9.26994 4,12.96094v6.03906h6.03906c3.691,2.523 8.15294,4 12.96094,4c4.808,0 9.26994,-1.477 12.96094,-4h6.03906v-6.03906c0.31538,-0.46138 0.61464,-0.93528 0.89648,-1.41992c1.97292,-3.39247 3.10352,-7.33402 3.10352,-11.54102c0,-0.601 -0.02305,-1.1958 -0.06836,-1.78516c-0.3172,-4.1255 -1.72402,-7.94616 -3.93164,-11.17578v-6.03906h-6.03906c-3.691,-2.523 -8.15294,-4 -12.96094,-4zM10.99805,14.95898h7.70117c-0.35,0.883 -0.233,2.6502 0,3.5332l2.56641,7.83203l3.73438,-9.59766l3.73242,9.59766l2.56836,-7.83203c0.233,-0.883 0.35,-2.6502 0,-3.5332h7.69922c-0.824,1.007 -1.41605,2.14547 -1.74805,3.35547l-3.15234,14.19336c-0.233,0.883 -0.11758,2.64825 0.23242,3.53125h-7.4668c0,0 0.141,-0.57362 0,-1.76562c-0.14,-1.202 -1.86523,-6.18164 -1.86523,-6.18164c0,0 -1.72619,4.98064 -1.86719,6.18164c-0.141,1.192 0,1.76563 0,1.76562h-7.4668c0.35,-0.883 0.46642,-2.6502 0.23242,-3.5332l-3.15039,-14.19141c-0.332,-1.21 -0.926,-2.34847 -1.75,-3.35547z"></path></g></g></svg>