<svg xmlns="http://www.w3.org/2000/svg" xmlns:xlink="http://www.w3.org/1999/xlink" viewBox="0,0,256,256" width="128px" height="128px" fill-rule="nonzero"><g fill="#888888" fill-rule="nonzero" stroke="none" stroke-width="1" stroke-linecap="butt" stroke-linejoin="miter" stroke-miterlimit="10" stroke-dasharray="" stroke-dashoffset="0" font-family="none" font-weight="none" font-size="none" text-anchor="none" style="mix-blend-mode: normal"><g transform="scale(8,8)"><path d="M16.10547,2.53516c-0.45613,-0.00359 -0.91152,0.10789 -1.31445,0.33594c-2.58688,1.4581 -5.43274,3.20993 -8.39453,4.91602c-0.00196,0.0013 -0.00391,0.0026 -0.00586,0.00391c-1.45651,0.85325 -2.63689,2.19338 -2.83984,3.80859c0,0.00065 0,0.0013 0,0.00195c-0.48043,3.87436 -0.26883,7.75701 0.63281,11.625c0.00189,0.00653 0.00384,0.01304 0.00586,0.01953c0.26912,1.06207 0.91786,2.032 1.72266,2.84961c0.80479,0.81761 1.76702,1.48331 2.83008,1.76758c0.00649,0.00202 0.013,0.00397 0.01953,0.00586c4.81734,1.18705 9.65922,1.18705 14.47656,0c0.00653,-0.00189 0.01304,-0.00384 0.01953,-0.00586c1.06306,-0.28427 2.02534,-0.94974 2.83008,-1.76758c0.80473,-0.81784 1.45417,-1.78874 1.72266,-2.85156c0.00135,-0.00585 0.00266,-0.01171 0.00391,-0.01758c0.90371,-3.87422 1.11632,-7.76212 0.63281,-11.64258c-0.00065,-0.00065 -0.0013,-0.0013 -0.00195,-0.00195c-0.20284,-1.60219 -1.36794,-2.93484 -2.81055,-3.79102c-0.00195,-0.00131 -0.0039,-0.00261 -0.00586,-0.00391c-2.89605,-1.69112 -5.67785,-3.43165 -8.21094,-4.89844c-0.3999,-0.232 -0.85637,-0.34993 -1.3125,-0.35352zM16.0918,4.50977c0.09863,0.00094 0.19816,0.03738 0.32227,0.10938c2.48892,1.44121 5.27712,3.18366 8.20703,4.89453c1.01319,0.60374 1.75172,1.63196 1.83984,2.31836c0.45384,3.64235 0.25742,7.27529 -0.5918,10.92383c-0.14209,0.55999 -0.60023,1.32082 -1.20703,1.9375c-0.6068,0.61668 -1.35823,1.08601 -1.91797,1.23633c-0.74688,0.18356 -1.49075,0.15269 -2.23633,0.27539c0.43746,-2.52176 0.45019,-5.13882 -0.08594,-7.63477c0.00035,-0.07689 -0.00817,-0.15357 -0.02539,-0.22852c-0.00605,-0.02698 -0.01322,-0.05369 -0.02148,-0.08008c-0.00126,-0.00522 -0.00256,-0.01043 -0.00391,-0.01562c-0.00251,-0.00784 -0.00511,-0.01566 -0.00781,-0.02344c-0.00254,-0.00654 -0.00514,-0.01305 -0.00781,-0.01953c-0.00946,-0.02449 -0.01989,-0.0486 -0.03125,-0.07227c-0.01416,-0.03006 -0.0298,-0.05939 -0.04687,-0.08789c-0.18499,-0.31412 -0.52623,-0.50271 -0.89062,-0.49219c-2.16201,-0.94072 -4.57232,-0.93375 -6.73437,0.00391c-0.49684,-0.03542 -0.94401,0.30016 -1.04883,0.78711c-0.0012,0.0051 -0.00075,0.01053 -0.00195,0.01563c-0.015,0.06801 -0.02285,0.13739 -0.02344,0.20703c0,0.0013 0,0.0026 0,0.00391c-0.5365,2.4965 -0.5235,5.11432 -0.08594,7.63672c-0.74558,-0.1227 -1.48945,-0.09183 -2.23633,-0.27539c-0.55977,-0.15029 -1.31098,-0.61967 -1.91797,-1.23633c-0.60584,-0.61548 -1.06364,-1.37416 -1.20703,-1.93359c-0.84752,-3.64276 -1.0464,-7.27373 -0.5957,-10.91016v-0.00195c0.08787,-0.69274 0.84238,-1.73168 1.86719,-2.33203c2.99244,-1.72394 5.83682,-3.47592 8.37109,-4.9043c0.00065,0 0.0013,0 0.00195,0c0.12007,-0.06795 0.21778,-0.1025 0.31641,-0.10156zM16,18.74414c0.85883,-0.0016 1.69746,0.25737 2.50586,0.5957c0.45122,2.33148 0.45618,4.79457 -0.02734,7.11523c-1.65114,0.14955 -3.30589,0.14955 -4.95703,0c-0.48272,-2.31683 -0.47822,-4.7754 -0.0293,-7.10352c0.80766,-0.34252 1.64767,-0.60587 2.50781,-0.60742z"></path></g></g></svg>